<svg width="20" height="21" viewBox="0 0 20 21" fill="none" xmlns="http://www.w3.org/2000/svg">
<path fill-rule="evenodd" clip-rule="evenodd" d="M4 4.59983C4 4.26855 4.26855 4 4.59983 4H12.7977C13.129 4 13.3976 4.26855 13.3976 4.59983C13.3976 4.9311 13.129 5.19965 12.7977 5.19965H4.59983C4.26855 5.19965 4 4.9311 4 4.59983ZM11.5981 7.59896H4.59983C4.26855 7.59896 4 7.86751 4 8.19878C4 8.53006 4.26855 8.79861 4.59983 8.79861H11.5981C11.9294 8.79861 12.1979 8.53006 12.1979 8.19878C12.1979 7.86751 11.9294 7.59896 11.5981 7.59896ZM4.59983 11.1979H10.3984C10.7297 11.1979 10.9983 11.4665 10.9983 11.7977C10.9983 12.129 10.7297 12.3976 10.3984 12.3976H4.59983C4.26855 12.3976 4 12.129 4 11.7977C4 11.4665 4.26855 11.1979 4.59983 11.1979ZM9.19878 14.7969H4.59983C4.26855 14.7969 4 15.0654 4 15.3967C4 15.728 4.26855 15.9965 4.59983 15.9965H9.19878C9.53006 15.9965 9.79861 15.728 9.79861 15.3967C9.79861 15.0654 9.53006 14.7969 9.19878 14.7969ZM16.3967 12.9939C16.5566 12.9939 16.7099 13.0578 16.8226 13.1713C16.9361 13.284 17 13.4373 17 13.5972C17 13.7572 16.9361 13.9105 16.8226 14.0231L15.0231 15.8226C14.9105 15.9361 14.7572 16 14.5972 16C14.4373 16 14.284 15.9361 14.1713 15.8226L12.3719 14.0231C12.2197 13.8709 12.1603 13.6492 12.216 13.4413C12.2717 13.2335 12.434 13.0712 12.6419 13.0155C12.8497 12.9598 13.0715 13.0192 13.2236 13.1713L13.9974 13.9511V4.59983C13.9974 4.26855 14.2659 4 14.5972 4C14.9285 4 15.197 4.26855 15.197 4.59983V13.9511L15.9708 13.1713C16.0834 13.0578 16.2368 12.9939 16.3967 12.9939Z" fill="#1C1F23" fill-opacity="0.8"/>
</svg>
