<svg width="16" height="17" viewBox="0 0 16 17" fill="none" xmlns="http://www.w3.org/2000/svg">
<path d="M13.3531 5.00938L9.99063 1.64688C9.89688 1.55313 9.77031 1.5 9.6375 1.5H3C2.72344 1.5 2.5 1.72344 2.5 2V15C2.5 15.2766 2.72344 15.5 3 15.5H13C13.2766 15.5 13.5 15.2766 13.5 15V5.36406C13.5 5.23125 13.4469 5.10313 13.3531 5.00938ZM12.3469 5.59375H9.40625V2.65313L12.3469 5.59375ZM12.375 14.375H3.625V2.625H8.34375V6C8.34375 6.17405 8.41289 6.34097 8.53596 6.46404C8.65903 6.58711 8.82595 6.65625 9 6.65625H12.375V14.375ZM8.25156 7.875H7.74844C7.6625 7.875 7.5875 7.93281 7.56719 8.01719L6.79063 11.125L6.07031 8.02031C6.05 7.93594 5.975 7.875 5.8875 7.875H5.33437C5.30563 7.87504 5.27729 7.88168 5.25152 7.89441C5.22574 7.90713 5.20324 7.9256 5.18573 7.9484C5.16822 7.97119 5.15618 7.9977 5.15052 8.02588C5.14487 8.05405 5.14576 8.08316 5.15312 8.11094L6.3125 12.4234C6.33437 12.5047 6.40938 12.5625 6.49375 12.5625H6.99375C7.07812 12.5625 7.15313 12.5062 7.175 12.4234L8 9.34531L8.825 12.4234C8.84687 12.5047 8.92188 12.5625 9.00625 12.5625H9.50313C9.5875 12.5625 9.6625 12.5062 9.68437 12.4234L10.8469 8.11094C10.8542 8.08316 10.855 8.05408 10.8493 8.02593C10.8437 7.99777 10.8316 7.97129 10.8141 7.94852C10.7966 7.92574 10.7741 7.90727 10.7484 7.89453C10.7227 7.88179 10.6943 7.87511 10.6656 7.875H10.1094C10.0219 7.875 9.94687 7.93594 9.92656 8.02031L9.21094 11.1313L8.43281 8.01719C8.4125 7.93281 8.3375 7.875 8.25156 7.875Z" fill="white"/>
</svg>
