<?xml version="1.0" encoding="UTF-8"?>
<svg width="1200pt" height="1200pt" version="1.1" viewBox="0 0 1200 1200" xmlns="http://www.w3.org/2000/svg">
 <path d="m1048.1 725.46c13.141-1.2344 24.832 8.418 26.066 21.559s-8.418 24.832-21.559 26.066l-638.32 60.223-11.41 50.613h646.57c13.254 0 24.008 10.758 24.008 24.008 0 13.254-10.758 24.008-24.008 24.008h-676.51c-1.7305-0.085938-3.4883-0.26953-5.2422-0.66797-12.883-2.8906-20.992-15.703-18.098-28.586l14.57-64.645-37.887 3.5703c-12.969 1.2188-24.535-8.1797-26.008-21.047l-82.051-648.02-168.17-28.191c-13.039-2.168-21.855-14.527-19.688-27.566 2.168-13.039 14.527-21.855 27.566-19.688l185.71 31.125c10.148 1.7305 18.426 9.8945 19.785 20.621l81.41 642.96zm-591.88 222c21.488 0 40.977 8.7461 55.062 22.832 14.09 14.09 22.82 33.578 22.82 55.062 0 21.488-8.7305 40.977-22.82 55.062-14.09 14.09-33.578 22.832-55.062 22.832-21.488 0-40.988-8.7305-55.078-22.82-14.09-14.09-22.82-33.59-22.82-55.078 0-21.488 8.7305-40.977 22.82-55.062 14.09-14.09 33.59-22.832 55.078-22.832zm21.133 56.766c-5.3867-5.3867-12.871-8.7461-21.133-8.7461-8.2617 0-15.762 3.3594-21.148 8.7461-5.3867 5.3867-8.7305 12.871-8.7305 21.133s3.3438 15.762 8.7305 21.148c5.3867 5.3867 12.883 8.7305 21.148 8.7305 8.2617 0 15.746-3.3594 21.133-8.7461s8.7305-12.871 8.7305-21.133-3.3438-15.746-8.7305-21.133zm488.81-56.766c21.488 0 40.977 8.7461 55.062 22.832 14.09 14.09 22.82 33.578 22.82 55.062 0 21.488-8.7305 40.977-22.82 55.062-14.09 14.09-33.578 22.832-55.062 22.832-21.488 0-40.977-8.7305-55.062-22.82-14.09-14.09-22.832-33.59-22.832-55.078 0-21.488 8.7461-40.977 22.832-55.062 14.09-14.09 33.578-22.832 55.062-22.832zm21.133 56.766c-5.3867-5.3867-12.871-8.7461-21.133-8.7461s-15.746 3.3594-21.133 8.7461c-5.3867 5.3867-8.7461 12.871-8.7461 21.133s3.3594 15.762 8.7461 21.148c5.3867 5.3867 12.871 8.7305 21.133 8.7305s15.746-3.3594 21.133-8.7461 8.7305-12.871 8.7305-21.133-3.3438-15.746-8.7305-21.133zm-663.86-801.84 822.96 15.605c13.195 0.19922 23.742 11.082 23.543 24.277-0.027344 1.9141-0.28516 3.7695-0.73828 5.5547l-97.16 433.59c-2.2969 10.391-11.043 17.688-21.09 18.637l-661.26 62.418c-12.969 1.2188-24.535-8.1797-26.008-21.047l-64.855-512.14c-1.6602-13.098 7.625-25.074 20.723-26.73l3.8828-0.17188zm792.86 62.871-766.54-14.543 58.508 461.95 620.91-58.594 87.125-388.82z"/>
</svg>
