<svg width="16" height="17" viewBox="0 0 16 17" fill="none" xmlns="http://www.w3.org/2000/svg">
<path d="M6.75798 15.4783C6.03919 15.4783 5.32036 15.1734 4.79772 14.6288C4.57984 14.411 4.60172 14.0625 4.79772 13.8664C5.0156 13.6485 5.364 13.6704 5.56015 13.8664C5.88681 14.1931 6.32259 14.4109 6.75818 14.3892C7.01951 14.3892 7.38977 14.3021 7.71661 13.9753C7.76021 13.9317 7.78194 13.91 7.82555 13.8882L11.572 10.0547C13.2492 8.37751 13.2492 5.52416 11.572 3.84698C9.89476 2.16976 7.15032 2.16976 5.45135 3.84698C5.23348 4.06486 4.88507 4.06486 4.68892 3.84698C4.47104 3.6291 4.47104 3.2807 4.68892 3.08455C6.80173 0.971736 10.2214 0.971736 12.3343 3.08455C14.4254 5.17566 14.4254 8.72598 12.3343 10.817L8.50074 14.7377C8.47901 14.7594 8.4354 14.803 8.3918 14.8247C7.9562 15.2603 7.36806 15.4999 6.73644 15.4999C6.77974 15.4782 6.77974 15.4782 6.75801 15.4782L6.75798 15.4783Z" fill="white"/>
<path d="M2.5542 9.90219C2.46714 9.90219 2.3582 9.88046 2.271 9.83686C2.00966 9.68431 1.92245 9.35766 2.075 9.09632C2.20566 8.85672 2.20566 8.53004 2.075 8.29045C1.92245 8.02911 2.00966 7.7023 2.271 7.54991C2.53233 7.39737 2.85914 7.48458 3.01153 7.74591C3.36007 8.33405 3.36007 9.05288 3.01153 9.64087C2.92447 9.81514 2.75036 9.90219 2.5542 9.90219Z" fill="white"/>
<path d="M4.40563 10.9259C4.31857 10.9259 4.23136 10.9042 4.1443 10.8606C3.88296 10.708 3.79576 10.3814 3.92642 10.1201C4.42736 9.20523 4.42736 8.13789 3.92642 7.2231C3.77387 6.96177 3.88281 6.63496 4.1443 6.48257C4.40563 6.33003 4.73244 6.43896 4.88483 6.70045C5.56002 7.94208 5.56002 9.4014 4.88483 10.6429C4.77589 10.817 4.60162 10.926 4.40564 10.926L4.40563 10.9259Z" fill="white"/>
<path d="M6.30061 11.9932C6.21354 11.9932 6.12633 11.9715 6.03927 11.9279C5.77794 11.7753 5.69073 11.4487 5.82139 11.1874C6.69258 9.64078 6.69258 7.72412 5.82139 6.17759C5.66885 5.91626 5.75606 5.58945 6.01739 5.43706C6.27873 5.28451 6.60554 5.37172 6.75793 5.63306C7.8034 7.48457 7.8034 9.81512 6.75793 11.6883C6.67087 11.8843 6.4966 11.9933 6.30059 11.9933L6.30061 11.9932Z" fill="white"/>
</svg>
