<svg width="20" height="20" viewBox="0 0 20 20" fill="none" xmlns="http://www.w3.org/2000/svg">
<path d="M3.18517 14.867L8.33518 9.74905L7.47684 9.49315C7.39101 9.47183 7.30517 9.42918 7.26226 9.3652C6.76871 8.91738 6.74726 8.17101 7.19788 7.68053C7.26226 7.61656 7.30517 7.57391 7.36955 7.53126L8.57122 6.67826C8.59268 6.65694 8.61414 6.63561 8.61414 6.59296L8.63559 5.16419C8.63559 4.71637 8.89309 4.33252 9.27934 4.11927C9.66559 3.92735 10.1162 3.97 10.481 4.2259L11.5968 5.03624C11.5539 5.07889 11.5968 5.07889 11.6183 5.05757L12.9702 4.5671C13.5496 4.35385 14.2148 4.6524 14.4294 5.22817C14.5152 5.48407 14.5152 5.76129 14.4294 6.01719L13.9358 7.36066C13.9358 7.38198 13.9358 7.42463 13.9573 7.44596L14.7727 8.55485C15.0302 8.91738 15.0731 9.38653 14.88 9.77037C14.6869 10.1542 14.2791 10.4101 13.85 10.4101L12.4123 10.4314C12.3908 10.4314 12.3479 10.4528 12.3264 10.4741L11.4681 11.6683C11.2535 11.9668 10.8887 12.1588 10.5239 12.1588C10.1806 12.1588 9.85872 12.0095 9.62268 11.7749C9.5583 11.7109 9.51539 11.647 9.49393 11.5617L9.23643 10.6873L4.08642 15.8053C3.82892 16.0612 3.42121 16.0612 3.18517 15.8266C2.94912 15.5921 2.92767 15.1443 3.18517 14.867ZM10.2451 9.5146L10.5241 10.4742C10.5455 10.5382 10.6099 10.5595 10.6528 10.5382C10.6743 10.5382 10.6957 10.5169 10.7172 10.4955L11.3395 9.62122C11.5541 9.32267 11.9188 9.13075 12.2836 9.13075H13.378C13.4424 9.13075 13.4853 9.0881 13.4853 9.02412C13.4853 9.0028 13.4853 8.98147 13.4638 8.96015L12.8416 8.10715C12.627 7.8086 12.5626 7.40343 12.6913 7.04091L13.0347 6.08129C13.0561 6.01731 13.0347 5.97466 12.9703 5.95334H12.9059L11.9403 6.29454C11.5755 6.42249 11.1893 6.35851 10.8674 6.14526L10.0305 5.52684C9.98759 5.48419 9.92322 5.50551 9.8803 5.54816C9.85884 5.56949 9.85884 5.59081 9.85884 5.61214V6.69971C9.85884 7.06223 9.66572 7.42476 9.3653 7.63801L8.48551 8.27775C8.44259 8.3204 8.42113 8.38438 8.46405 8.42703C8.48551 8.44835 8.50697 8.46968 8.52842 8.46968L9.49405 8.7469C9.83738 8.85352 10.1378 9.13075 10.2451 9.5146Z" fill="white"/>
<path d="M16 7.51758L17.9319 6.99994" stroke="white" stroke-width="0.8" stroke-linecap="round"/>
<path d="M12 2.93188L12.5176 1.00003" stroke="white" stroke-width="0.8" stroke-linecap="round"/>
<path d="M14 13L15.4142 14.4142" stroke="white" stroke-width="0.8" stroke-linecap="round"/>
<path d="M5.06543 3.92792L6.47964 5.34213" stroke="white" stroke-width="0.8" stroke-linecap="round"/>
</svg>
