<svg width="20" height="21" viewBox="0 0 20 21" fill="none" xmlns="http://www.w3.org/2000/svg">
<path fill-rule="evenodd" clip-rule="evenodd" d="M2.5 6.33333C2.5 6.79167 2.875 7.16667 3.33333 7.16667H16.6667C17.125 7.16667 17.5 6.79167 17.5 6.33333C17.5 5.875 17.125 5.5 16.6667 5.5H3.33333C2.875 5.5 2.5 5.875 2.5 6.33333ZM9.16667 15.5H10.8333C11.2917 15.5 11.6667 15.125 11.6667 14.6667C11.6667 14.2083 11.2917 13.8333 10.8333 13.8333H9.16667C8.70833 13.8333 8.33333 14.2083 8.33333 14.6667C8.33333 15.125 8.70833 15.5 9.16667 15.5ZM14.1667 11.3333H5.83333C5.375 11.3333 5 10.9583 5 10.5C5 10.0417 5.375 9.66667 5.83333 9.66667H14.1667C14.625 9.66667 15 10.0417 15 10.5C15 10.9583 14.625 11.3333 14.1667 11.3333Z" fill="#1C1F23" fill-opacity="0.8"/>
</svg>
