<svg width="20" height="20" viewBox="0 0 20 20" fill="none" xmlns="http://www.w3.org/2000/svg">
<path d="M11.1358 3.16444C10.986 3.05749 10.8066 3 10.6226 3C10.4385 3 10.2591 3.05749 10.1093 3.16444L4 7.52824V16.144H17.2451V7.52824L11.1358 3.16444ZM16.3621 13.5693L12.9396 11.3692L16.3621 8.70722V13.5693ZM10.6226 3.88296L16.098 7.79408L12.1522 10.8629L10.6226 9.8796L9.09291 10.8629L5.14711 7.79408L10.6226 3.88296ZM4.88301 8.70722L8.30549 11.3692L4.88301 13.5693V8.70722ZM16.3621 15.261H4.88301V14.619L10.6226 10.9293L16.3621 14.619V15.261Z" fill="#5F5F5F"/>
</svg>
