<svg width="13" height="14" viewBox="0 0 13 14" fill="none" xmlns="http://www.w3.org/2000/svg">
<path d="M11.6999 0.0965513V6.32461L2.01508 0.206854C1.7524 0.0397591 1.43576 -0.0295972 1.1241 0.0115967C0.812446 0.0525818 0.526678 0.201597 0.319923 0.430698C0.113391 0.659584 -0.00043333 0.953413 1.23978e-06 1.25711V12.7447C0.000218915 13.0478 0.113608 13.3406 0.319923 13.5692C0.526021 13.7977 0.810686 13.9465 1.1217 13.9881C1.43248 14.0297 1.74849 13.9612 2.01118 13.7956L11.6999 7.67892V13.9064H12.9998L13 0.0965677L11.6999 0.0965513ZM1.30027 12.7458V1.25822L10.4001 7.00148L1.30027 12.7458Z" fill="#7E7E7E"/>
</svg>
