<?xml version="1.0" encoding="UTF-8"?>
<svg width="1200pt" height="1200pt" version="1.1" viewBox="0 0 1200 1200" xmlns="http://www.w3.org/2000/svg">
 <g fill="#5f5f5f">
  <path d="m600 285.12c-173.53 0-314.88 141.35-314.88 314.88s141.35 314.88 314.88 314.88 314.88-141.35 314.88-314.88-141.35-314.88-314.88-314.88zm0 62.977c139.5 0 251.91 112.41 251.91 251.91s-112.41 251.91-251.91 251.91-251.91-112.41-251.91-251.91 112.41-251.91 251.91-251.91z"/>
  <path d="m600 505.54c-8.3477 0-16.359 3.3164-22.266 9.2227-5.9023 5.9023-9.2227 13.914-9.2227 22.262v220.42c0 8.3516 3.3203 16.359 9.2227 22.266 5.9062 5.9062 13.918 9.2227 22.266 9.2227 8.3516 0 16.363-3.3164 22.266-9.2227 5.9062-5.9062 9.2227-13.914 9.2227-22.266v-220.42c0-8.3477-3.3164-16.359-9.2227-22.262-5.9023-5.9062-13.914-9.2227-22.266-9.2227z"/>
  <path d="m631.49 442.55c0 8.3516-3.3164 16.363-9.2227 22.266-5.9023 5.9062-13.914 9.2227-22.266 9.2227-8.3477 0-16.359-3.3164-22.266-9.2227-5.9023-5.9023-9.2227-13.914-9.2227-22.266s3.3203-16.359 9.2227-22.266c5.9062-5.9023 13.918-9.2227 22.266-9.2227 8.3516 0 16.363 3.3203 22.266 9.2227 5.9062 5.9062 9.2227 13.914 9.2227 22.266z"/>
 </g>
</svg>
