<?xml version="1.0" encoding="UTF-8"?>
<svg width="1200pt" height="1200pt" version="1.1" viewBox="0 0 1200 1200" xmlns="http://www.w3.org/2000/svg">
 <g>
  <path d="m1146.2 196.72-68.105-55.617v-28.438c-0.011719-8.3125-2.7773-16.387-7.8672-22.961-5.0898-6.5742-12.215-11.273-20.258-13.371v-38.836c0-9.9453-3.9492-19.484-10.984-26.516-7.0312-7.0352-16.57-10.984-26.516-10.984h-37.5c-9.9453 0-19.484 3.9492-26.516 10.984-7.0352 7.0312-10.984 16.57-10.984 26.516v38.836c-8.043 2.0977-15.168 6.7969-20.258 13.371-5.0898 6.5742-7.8555 14.648-7.8672 22.961v917.57c0 2.457 0.48438 4.8867 1.418 7.1602l46.875 113.52c1.418 3.4297 3.8242 6.3594 6.9062 8.4258 3.0859 2.0625 6.7148 3.1641 10.426 3.1641v18.75c0 6.6992 3.5742 12.887 9.375 16.238 5.8008 3.3477 12.949 3.3477 18.75 0 5.8008-3.3516 9.375-9.5391 9.375-16.238v-18.75c3.7109 0 7.3398-1.1016 10.426-3.1641 3.082-2.0664 5.4883-4.9961 6.9062-8.4258l46.875-113.52c0.93359-2.2734 1.418-4.7031 1.418-7.1602v-840.71l37.5 30.625v192.36c0 6.6992 3.5742 12.887 9.375 16.238 5.8008 3.3477 12.949 3.3477 18.75 0 5.8008-3.3516 9.375-9.5391 9.375-16.238v-201.25c0-5.6328-2.5312-10.965-6.8945-14.527zm-171.23-159.22h37.5v37.5h-37.5zm65.625 989.02-40.668 98.484h-12.414l-40.668-98.484v-4.6406h93.75zm0-42.141h-93.75v-37.5h93.75zm0-75h-93.75v-37.5h93.75zm0-75h-93.75v-553.12h93.75zm0-590.62h-93.75v-37.5h93.75zm0-75h-93.75v-56.25l93.75 0.16797z"/>
  <path d="m796.88 131.25h-140.62v37.5h46.875v900h-506.25v-900h46.875v-37.5h-140.62c-14.914 0.015625-29.211 5.9492-39.758 16.492-10.543 10.547-16.477 24.844-16.492 39.758v956.25c0.015625 14.914 5.9492 29.211 16.492 39.758 10.547 10.543 24.844 16.477 39.758 16.492h693.75c14.914-0.015625 29.211-5.9492 39.758-16.492 10.543-10.547 16.477-24.844 16.492-39.758v-956.25c-0.015625-14.914-5.9492-29.211-16.492-39.758-10.547-10.543-24.844-16.477-39.758-16.492zm18.75 1012.5c-0.007812 4.9727-1.9844 9.7344-5.5 13.25s-8.2773 5.4922-13.25 5.5h-693.75c-4.9727-0.007812-9.7344-1.9844-13.25-5.5s-5.4922-8.2773-5.5-13.25v-956.25c0.003906-4.9727 1.9844-9.7383 5.4961-13.254 3.5156-3.5117 8.2812-5.4922 13.254-5.4961h56.25v918.75c0 4.9727 1.9766 9.7422 5.4922 13.258 3.5156 3.5156 8.2852 5.4922 13.258 5.4922h543.75c4.9727 0 9.7422-1.9766 13.258-5.4922 3.5156-3.5156 5.4922-8.2852 5.4922-13.258v-918.75h56.25c4.9727 0.003906 9.7383 1.9844 13.254 5.4961 3.5117 3.5156 5.4922 8.2812 5.4961 13.254z"/>
  <path d="m318.75 225h262.5c9.9414-0.011719 19.473-3.9648 26.504-10.996s10.984-16.562 10.996-26.504v-77.082c-0.011719-9.9414-3.9648-19.477-10.996-26.504-7.0312-7.0312-16.562-10.984-26.504-10.996h-44.367c-4.8359-27.461-22.367-51.016-47.285-63.531-24.914-12.516-54.281-12.516-79.195 0-24.918 12.516-42.449 36.07-47.285 63.531h-44.367c-9.9414 0.011719-19.473 3.9648-26.504 10.996-7.0312 7.0273-10.984 16.562-10.996 26.504v77.082c0.011719 9.9414 3.9648 19.473 10.996 26.504s16.562 10.984 26.504 10.996zm0-114.58h61.25c4.9727 0 9.7422-1.9766 13.258-5.4922 3.5156-3.5156 5.4922-8.2852 5.4922-13.258-0.78125-14.086 4.2695-27.871 13.965-38.117 9.6953-10.246 23.18-16.051 37.285-16.051s27.59 5.8047 37.285 16.051c9.6953 10.246 14.746 24.031 13.965 38.117 0 4.9727 1.9766 9.7422 5.4922 13.258 3.5156 3.5156 8.2852 5.4922 13.258 5.4922h61.25v77.082h-262.5z"/>
  <path d="m278.94 417.53c3.8516 3.1406 8.7812 4.6445 13.727 4.1836 4.9492-0.45703 9.5156-2.8398 12.723-6.6328l46.555-56.25c4.2422-5.1641 5.4141-12.195 3.0781-18.457-2.3359-6.2617-7.8281-10.805-14.414-11.93s-13.277 1.3398-17.555 6.4727l-34.562 41.762-13.988-11.656c-3.8203-3.1914-8.7539-4.7383-13.715-4.2891-4.957 0.44531-9.5352 2.8438-12.723 6.6719-3.1875 3.8242-4.7227 8.7617-4.2656 13.719s2.8633 9.5312 6.6953 12.711z"/>
  <path d="m278.94 623.79c3.8789 3.0781 8.793 4.5391 13.719 4.082 4.9258-0.45703 9.4883-2.7969 12.73-6.5352l46.555-56.25c4.2422-5.1641 5.4141-12.195 3.0781-18.457-2.3359-6.2617-7.8281-10.805-14.414-11.93s-13.277 1.3398-17.555 6.4727l-34.562 41.762-13.988-11.656c-3.8203-3.1914-8.7539-4.7383-13.715-4.2891-4.957 0.44531-9.5352 2.8438-12.723 6.6719-3.1875 3.8242-4.7227 8.7617-4.2656 13.719s2.8633 9.5312 6.6953 12.711z"/>
  <path d="m393.75 337.5c0 4.9727 1.9766 9.7422 5.4922 13.258 3.5156 3.5156 8.2852 5.4922 13.258 5.4922h225c6.6992 0 12.887-3.5742 16.238-9.375 3.3477-5.8008 3.3477-12.949 0-18.75-3.3516-5.8008-9.5391-9.375-16.238-9.375h-225c-4.9727 0-9.7422 1.9766-13.258 5.4922-3.5156 3.5156-5.4922 8.2852-5.4922 13.258z"/>
  <path d="m412.5 431.25h168.75c6.6992 0 12.887-3.5742 16.238-9.375 3.3477-5.8008 3.3477-12.949 0-18.75-3.3516-5.8008-9.5391-9.375-16.238-9.375h-168.75c-6.6992 0-12.887 3.5742-16.238 9.375-3.3477 5.8008-3.3477 12.949 0 18.75 3.3516 5.8008 9.5391 9.375 16.238 9.375z"/>
  <path d="m637.5 525h-225c-6.6992 0-12.887 3.5742-16.238 9.375-3.3477 5.8008-3.3477 12.949 0 18.75 3.3516 5.8008 9.5391 9.375 16.238 9.375h225c6.6992 0 12.887-3.5742 16.238-9.375 3.3477-5.8008 3.3477-12.949 0-18.75-3.3516-5.8008-9.5391-9.375-16.238-9.375z"/>
  <path d="m412.5 637.5h75c6.6992 0 12.887-3.5742 16.238-9.375 3.3477-5.8008 3.3477-12.949 0-18.75-3.3516-5.8008-9.5391-9.375-16.238-9.375h-75c-6.6992 0-12.887 3.5742-16.238 9.375-3.3477 5.8008-3.3477 12.949 0 18.75 3.3516 5.8008 9.5391 9.375 16.238 9.375z"/>
  <path d="m637.5 712.5h-225c-6.6992 0-12.887 3.5742-16.238 9.375-3.3477 5.8008-3.3477 12.949 0 18.75 3.3516 5.8008 9.5391 9.375 16.238 9.375h225c6.6992 0 12.887-3.5742 16.238-9.375 3.3477-5.8008 3.3477-12.949 0-18.75-3.3516-5.8008-9.5391-9.375-16.238-9.375z"/>
  <path d="m412.5 825h168.75c6.6992 0 12.887-3.5742 16.238-9.375 3.3477-5.8008 3.3477-12.949 0-18.75-3.3516-5.8008-9.5391-9.375-16.238-9.375h-168.75c-6.6992 0-12.887 3.5742-16.238 9.375-3.3477 5.8008-3.3477 12.949 0 18.75 3.3516 5.8008 9.5391 9.375 16.238 9.375z"/>
  <path d="m300 712.5c-14.918 0-29.227 5.9258-39.773 16.477-10.551 10.547-16.477 24.855-16.477 39.773s5.9258 29.227 16.477 39.773c10.547 10.551 24.855 16.477 39.773 16.477s29.227-5.9258 39.773-16.477c10.551-10.547 16.477-24.855 16.477-39.773-0.015625-14.914-5.9492-29.211-16.492-39.758-10.547-10.543-24.844-16.477-39.758-16.492zm0 75c-4.9727 0-9.7422-1.9766-13.258-5.4922-3.5156-3.5156-5.4922-8.2852-5.4922-13.258s1.9766-9.7422 5.4922-13.258c3.5156-3.5156 8.2852-5.4922 13.258-5.4922s9.7422 1.9766 13.258 5.4922c3.5156 3.5156 5.4922 8.2852 5.4922 13.258s-1.9766 9.7422-5.4922 13.258c-3.5156 3.5156-8.2852 5.4922-13.258 5.4922z"/>
  <path d="m656.25 918.75c0-4.9727-1.9766-9.7422-5.4922-13.258-3.5156-3.5156-8.2852-5.4922-13.258-5.4922h-225c-6.6992 0-12.887 3.5742-16.238 9.375-3.3477 5.8008-3.3477 12.949 0 18.75 3.3516 5.8008 9.5391 9.375 16.238 9.375h225c4.9727 0 9.7422-1.9766 13.258-5.4922 3.5156-3.5156 5.4922-8.2852 5.4922-13.258z"/>
  <path d="m412.5 975c-6.6992 0-12.887 3.5742-16.238 9.375-3.3477 5.8008-3.3477 12.949 0 18.75 3.3516 5.8008 9.5391 9.375 16.238 9.375h46.875c6.6992 0 12.887-3.5742 16.238-9.375 3.3477-5.8008 3.3477-12.949 0-18.75-3.3516-5.8008-9.5391-9.375-16.238-9.375z"/>
  <path d="m300 900c-14.918 0-29.227 5.9258-39.773 16.477-10.551 10.547-16.477 24.855-16.477 39.773s5.9258 29.227 16.477 39.773c10.547 10.551 24.855 16.477 39.773 16.477s29.227-5.9258 39.773-16.477c10.551-10.547 16.477-24.855 16.477-39.773-0.015625-14.914-5.9492-29.211-16.492-39.758-10.547-10.543-24.844-16.477-39.758-16.492zm0 75c-4.9727 0-9.7422-1.9766-13.258-5.4922-3.5156-3.5156-5.4922-8.2852-5.4922-13.258s1.9766-9.7422 5.4922-13.258c3.5156-3.5156 8.2852-5.4922 13.258-5.4922s9.7422 1.9766 13.258 5.4922c3.5156 3.5156 5.4922 8.2852 5.4922 13.258s-1.9766 9.7422-5.4922 13.258c-3.5156 3.5156-8.2852 5.4922-13.258 5.4922z"/>
 </g>
</svg>
