<?xml version="1.0" encoding="UTF-8"?>
<svg width="1200pt" height="1200pt" version="1.1" viewBox="0 0 1200 1200" xmlns="http://www.w3.org/2000/svg">
 <g fill="#5f5f5f">
  <path d="m249.55 408-72.434-71.844c-13.465-13.488-35.258-13.105-48.742 0.33594-13.477 13.441-13.512 35.473-0.085938 48.949l82.547 77.617c6.4609 6.4766 15.258 4.9414 24.41 4.9414h67.152c-47.82 60-79.211 132-90.828 204h-117.11c-19.043 0-34.465 16.957-34.465 36 0 19.031 15.422 36 34.465 36h112.02c0.60156 60 15.781 120 42.266 168h-24.996c-9.1562 0-17.941 5.2305-24.406 11.723l-82.535 83.578c-13.441 13.477-13.414 35.699 0.058594 49.141 6.7422 6.707 15.527 10.262 24.336 10.262 8.832 0 17.676-3.3359 24.395-10.094l72.465-72.609h55.656c67.801 84 174.28 138.53 282.28 144.66v-720.66z"/>
  <path d="m1105.5 672h-119.53c-14.879-72-53.207-144-98.113-204h76.859c9.1562 0 17.941 1.6445 24.406-4.8477l82.547-80.148c13.43-13.488 13.391-33.984-0.085937-47.426-13.5-13.453-35.293-13.57-48.742-0.085937l-72.426 72.508h-326.45v720.39c108-7.0312 212.55-72.395 280.36-144.39h57.574l72.457 72.707c6.7305 6.7578 15.562 10.164 24.395 10.164 8.8086 0 17.605-3.3477 24.336-10.043 13.477-13.441 13.5-35.258 0.058593-48.73l-82.535-84.371c-6.4531-6.4961-15.25-11.727-24.395-11.727h-26.398c26.809-48 42.203-108 42.805-168h112.88c19.043 0 34.465-16.969 34.465-36 0-19.043-15.422-36-34.465-36z"/>
  <path d="m377.05 360h445.89c0-84-41.676-147.17-104.24-186.66l45-44.074c13.465-13.453 13.465-34.824 0-48.289-13.465-13.453-35.27-13.223-48.742 0.23828l-65.09 65.207c-16.055-3.6719-32.711-5.7344-49.883-5.7344s-33.828 2.1484-49.883 5.8203l-65.102-65.074c-13.465-13.453-35.27-13.453-48.742 0-13.477 13.453-13.465 35.293 0 48.758l45 43.164c-62.535 39.488-104.21 102.64-104.21 186.64z"/>
 </g>
</svg>
