<?xml version="1.0" encoding="UTF-8"?>
<svg width="1200pt" height="1200pt" version="1.1" viewBox="0 0 1200 1200" xmlns="http://www.w3.org/2000/svg">
 <g fill="#d2d2d2">
  <path d="m565.96 576.03c0.73047 0 1.4648-0.035156 2.0859-0.074219 16.992-0.95312 31.09-14.465 33.617-32.336 0.66016-4.9062 0.36719-9.4102-0.32812-13.367 0.14844-1.4648 0.14844-3.0039 0.035156-4.5039-1.3203-18.055-12.781-34.605-29.59-42.406-12.012-5.3828-24.902-4.0273-34.828 3.957-4.4688 3.7344-9.2266 11.754-10.73 17.395-6.8828 25.93-0.66016 49.477 16.734 63.023 8.6484 6.6992 17.074 8.3125 23.004 8.3125z"/>
  <path d="m767.41 560.21c4.5039 1.9414 9.2656 2.8945 13.988 2.8945 11.645 0 23.035-5.75 29.992-16.004 4.2852-6.3008 6.4453-13.805 6.5195-21.352 0.69531-2.1602 1.1367-4.3945 1.2812-6.7383 0.66016-10.875 0.36719-26.918-9.7773-40.504-8.5703-11.426-22.449-17.613-36.621-15.418-13.258 1.7578-24.059 10.219-28.82 22.375-2.9648 7.3242-2.9648 13.953-2.9648 17.906 0 9.0469 0 21.461 5.0547 33.801 4.4648 11.027 11.898 19.012 21.348 23.039z"/>
  <path d="m840.73 659.93c-0.035157-6.3711-2.1953-12.523-6.1875-17.504-19.773-24.609-51.121-41.492-90.637-48.777-85.035-15.785-156.63 2.0859-201.6 50.426-4.3945 4.6875-7.0312 10.766-7.4727 17.211-2.125 30.359 12.414 60.789 37.059 77.492 32.629 22.117 71.484 31.348 108.98 31.348 36.586 0 71.887-8.8242 98.766-23.145 38.965-20.805 61.23-52.516 61.086-87.051zm-87.562 37.391c-38.523 20.582-104.15 25.781-149.71-5.1289-5.6406-3.8086-9.8867-10.582-11.684-17.836 40.246-35.008 98.547-33.434 141.87-25.414 15.125 2.7852 34.68 8.5703 49 20.543-5.4922 13.699-21.715 23.695-29.48 27.836z"/>
  <path d="m936.64 691.75c15.785-35.082 22.23-77.16 20.324-132.46-1.0234-28.785-4.0273-66.32-18.457-101.07-19.262-46.582-58.559-84.926-107.89-105.21-45.41-18.602-92.211-21.094-132.42-20.398-44.605 0.40234-96.645 4.2852-144.32 30.141-66.582 36.07-113.23 112.04-122.66 195.58-90.152 1.3164-158.75 67.723-185.4 134.59-31.422 78.844-22.594 171.71 23.621 248.47 41.309 68.555 130.11 154.58 318.79 174.94 21.715 2.3086 48.012 4.5039 76.758 4.5039 38.453 0 81.262-3.918 123.2-16.664 75.695-22.996 136.71-74.852 167.43-142.24 32.781-72 16.027-176.99-35.168-242.3 5.8555-8.8125 11.641-17.738 16.199-27.883zm-32.227 246.86c-24.023 52.699-72.363 93.422-132.57 111.73-49 14.906-103.79 18.055-177.61 10.035-165.71-17.871-241.88-90.344-276.6-147.98-36.656-60.863-44.164-137-19.594-198.67 19.574-49.074 69.23-98.02 133-99.379 8.0312 87.965 57.25 168.17 127.82 203.89 4.0664 2.0508 8.4219 3.0391 12.672 3.0391 10.289 0 20.18-5.6406 25.121-15.418 7.0312-13.844 1.4648-30.797-12.379-37.793-57.312-29.039-97.887-101.55-98.656-176.4-0.80469-74.926 38.27-148.72 95.07-179.48 36.84-19.957 80.348-22.996 118.03-23.328 34.715-0.47656 74.449 1.3906 110.56 16.188 35.523 14.613 63.684 41.82 77.27 74.672 8.5703 20.652 12.926 45.812 14.172 81.555 1.6484 46.363-3.2578 80.492-15.383 107.41-17.32 38.637-52.113 65.844-82.762 89.832-12.23 9.5938-14.391 27.246-4.8359 39.477 9.5586 12.23 27.211 14.43 39.477 4.8359 14.602-11.43 30.633-24.473 46.102-39.207 32.926 49.539 43.602 125.62 21.102 174.99z"/>
  <path d="m348.98 710.83c-13.695-7.4727-30.762-2.418-38.16 11.207-7.4336 13.66-2.418 30.727 11.207 38.16 19.996 10.914 92.027 89.758 109.57 157.76 3.2969 12.672 14.723 21.094 27.211 21.094 2.3438 0 4.7227-0.29297 7.0664-0.87891 15.051-3.8828 24.098-19.227 20.215-34.277-20.91-80.895-101.44-173.62-137.11-193.07z"/>
  <path d="m774.01 100.14c-38.453-23.18-86.5-27.539-128.43-11.684-13.074 4.9453-28.016 18.348-30.027 36.035-1.4648 12.855 4.1367 24.867 14.977 32.082 12.965 8.6055 30.395 5.0898 39-7.8008 2.1602-3.2227 3.5508-6.7734 4.2461-10.363 12.34-3.2578 25.523-3.8828 38.488-1.7227-7.3242 3.1133-14.613 6.957-21.605 11.902-21.129 15.016-34.203 37.609-34.938 60.133-0.69531 15.086 5.2383 24.609 10.621 30.25 7.2148 7.3594 15.711 9.668 19.812 10.805l28.125 7.582c2.4531 0.66016 4.9062 0.95312 7.3242 0.95312 12.414 0 23.766-8.2773 27.172-20.801 4.0273-15.016-4.8711-30.434-19.848-34.496l-11.719-3.1484c1.6836-1.9414 3.6992-3.7734 5.9688-5.3477 9.2656-6.5547 22.301-10.363 33.91-13.441 33.91-9.1562 43.141-31.457 40.43-49.477-2.0117-12.641-9.8867-23.188-23.508-31.461z"/>
  <path d="m754.2 261.05c-9.6328 12.195-7.543 29.883 4.6875 39.477l6.9219 5.457c5.1289 4.0664 11.277 6.043 17.359 6.043 8.3516 0 16.59-3.6641 22.117-10.73 9.6328-12.195 7.543-29.883-4.6875-39.477l-6.9219-5.457c-12.195-9.668-29.918-7.543-39.477 4.6875z"/>
 </g>
</svg>
