<?xml version="1.0" encoding="UTF-8"?>
<svg width="1200pt" height="1200pt" version="1.1" viewBox="0 0 1200 1200" xmlns="http://www.w3.org/2000/svg">
 <path d="m435.66 830.34c-16.402-16.402-16.402-42.992 0-59.395 16.402-16.402 42.992-16.402 59.395 0 96.07 96.066 251.83 96.066 347.9 0 96.066-96.07 96.066-251.83 0-347.9-96.07-96.066-251.83-96.066-347.9 0-16.402 16.402-42.992 16.402-59.395 0-16.402-16.402-16.402-42.992 0-59.395 128.87-128.88 337.82-128.88 466.69 0 128.88 128.87 128.88 337.82 0 466.69-128.87 128.88-337.82 128.88-466.69 0zm345.61-208.82-122.83 120.31c-33.938 33.84-84.855-16.918-50.918-50.77l41.461-41.188c9.4375-9.375 6.332-16.98-6.9453-16.98h-393.1c-19.805 0-35.93-16.07-35.93-35.898 0-19.785 16.086-35.898 35.93-35.898h393.1c13.285 0 16.387-7.6016 6.9453-16.98l-41.461-41.195c-33.938-33.84 16.98-84.609 50.918-50.773l122.66 119.08c14.34 13.922 14.363 36.387 0.16797 50.289z" fill="#676767" fill-rule="evenodd"/>
</svg>
