<?xml version="1.0" encoding="UTF-8"?>
<svg width="1200pt" height="1200pt" version="1.1" viewBox="0 0 1200 1200" xmlns="http://www.w3.org/2000/svg">
 <path d="m886.9 300c-76.5-61.801-182.05-100-286.9-100-106.09 0-207.83 42.145-282.84 117.16-75.012 75.016-117.16 176.76-117.16 282.84s42.145 207.83 117.16 282.84c75.016 75.012 176.76 117.16 282.84 117.16s207.83-42.145 282.84-117.16c75.012-75.016 117.16-176.76 117.16-282.84 0-17.863 9.5312-34.371 25-43.301 15.469-8.9336 34.531-8.9336 50 0 15.469 8.9297 25 25.438 25 43.301 0 276.15-223.85 500-500 500s-500-223.85-500-500 223.85-500 500-500c127.45 0 255.35 45.801 350 122.45v-72.449c0-17.863 9.5312-34.371 25-43.301 15.469-8.9336 34.531-8.9336 50 0 15.469 8.9297 25 25.438 25 43.301v200c0 13.262-5.2695 25.98-14.645 35.355s-22.094 14.645-35.355 14.645h-200c-17.863 0-34.371-9.5312-43.301-25-8.9336-15.469-8.9336-34.531 0-50 8.9297-15.469 25.438-25 43.301-25z"/>
</svg>
