<svg width="20" height="20" viewBox="0 0 20 20" fill="none" xmlns="http://www.w3.org/2000/svg">
<path d="M16.8791 9.41843L11.9477 13.4729H11.9116V11.4724C11.9041 11.3569 11.8605 11.2544 11.7884 11.1808C11.7523 11.1433 11.7088 11.113 11.6592 11.0927C11.6156 11.0711 11.563 11.0581 11.5029 11.0581C11.4503 11.0581 11.3947 11.0567 11.282 11.0711C8.24989 11.4319 5.11556 12.9995 3.82336 13.8871C4.65728 10.9412 6.70526 8.29259 11.5179 7.42223C11.6231 7.40636 11.7178 7.35151 11.7854 7.27501C11.853 7.19851 11.8936 7.09747 11.8936 6.98778C11.8936 6.982 11.8936 6.97623 11.8936 6.97046V5.31201L16.8791 9.41843Z" fill="#7E7E7E"/>
<path d="M11.6592 11.0928C11.7764 11.152 11.8335 11.2819 11.8335 11.4406C11.8335 11.66 11.6517 11.8376 11.4293 11.8376V11.8405C11.2941 11.8578 11.1588 11.878 11.0221 11.9011V11.4998C11.0221 11.2559 11.252 11.061 11.4984 11.061C11.557 11.061 11.6111 11.0726 11.6592 11.0928Z" fill="#7E7E7E"/>
<path d="M11.2821 11.0711C11.3948 11.0567 11.4504 11.0581 11.503 11.0581C11.5631 11.0581 11.6156 11.0697 11.6592 11.0928C11.6111 11.0726 11.557 11.061 11.4984 11.061C11.252 11.061 11.0221 11.2559 11.0221 11.4998V11.9011C8.80286 12.2706 6.43334 13.2694 5.5273 13.7486C4.9999 14.0156 4.32375 14.414 3.54242 14.9466C3.54092 14.9466 3.54242 14.9423 3.54092 14.9437C3.48533 14.9798 3.41771 15 3.34709 15C3.16228 15 3.01503 14.8629 3 14.6882C3.31103 10.5861 6.49644 7.3905 11.0221 6.68902V4.51529C11.0221 4.23094 11.261 4 11.5585 4C11.6908 4 11.811 4.04907 11.9056 4.12557L17.8257 9.0374C17.9324 9.13266 18 9.26545 18 9.41556C18 9.57289 17.9264 9.71434 17.8107 9.80961L17.8122 9.81105L11.8906 14.7229C11.799 14.7936 11.6848 14.8398 11.5585 14.8398C11.261 14.8398 11.0221 14.6103 11.0221 14.3245V13.395V12.3095V11.9011C11.1589 11.878 11.2941 11.8578 11.4293 11.8404V11.8376C11.6517 11.8376 11.8335 11.66 11.8335 11.4406C11.8335 11.2804 11.7764 11.1505 11.6592 11.0928C11.7088 11.113 11.7524 11.1433 11.7884 11.1808C11.8606 11.2544 11.9056 11.3569 11.9116 11.4724V13.4729H11.9477L16.8791 9.41845L11.8936 5.31203V6.97048C11.8936 6.97625 11.8936 6.98202 11.8936 6.9878C11.8936 7.09749 11.853 7.19853 11.7854 7.27503C11.7178 7.35153 11.6247 7.40638 11.518 7.42225C6.7053 8.29261 4.65732 10.9412 3.8234 13.8872C5.1156 12.9995 8.24992 11.432 11.2821 11.0711Z" fill="#7E7E7E"/>
</svg>
