<svg width="20" height="20" viewBox="0 0 20 20" fill="none" xmlns="http://www.w3.org/2000/svg">
<path d="M18 9.41556C18 9.26545 17.9324 9.13266 17.8257 9.0374L11.9056 4.12557C11.811 4.04907 11.6908 4 11.5585 4C11.261 4 11.0221 4.23094 11.0221 4.51529V6.68902C6.49644 7.3905 3.31103 10.5861 3 14.6882C3.01503 14.8629 3.16228 15 3.34709 15C3.41771 15 3.48533 14.9798 3.54092 14.9437C3.54242 14.9423 3.54092 14.9466 3.54242 14.9466C4.32375 14.414 4.9999 14.0156 5.5273 13.7486C6.48893 13.2405 9.09887 12.1464 11.4293 11.8404V11.8376C11.6517 11.8376 11.8335 11.66 11.8335 11.4406C11.8335 11.2212 11.7253 11.0581 11.503 11.0581C11.4504 11.0581 11.3948 11.0567 11.2821 11.0711C8.24992 11.432 5.1156 12.9995 3.8234 13.8872C4.65732 10.9412 6.7053 8.29261 11.518 7.42225C11.7298 7.38906 11.8936 7.20719 11.8936 6.9878C11.8936 6.98202 11.8936 6.97625 11.8936 6.97048V5.31203L16.8791 9.41845L11.9477 13.4729H11.9116V11.4724C11.8981 11.2414 11.7343 11.061 11.4984 11.061C11.252 11.061 11.0221 11.2559 11.0221 11.4998V12.3095V13.395V14.3245C11.0221 14.6103 11.261 14.8398 11.5585 14.8398C11.6848 14.8398 11.799 14.7936 11.8906 14.7229L17.8122 9.81105L17.8107 9.80961C17.9264 9.71434 18 9.57289 18 9.41556Z" fill="#7E7E7E"/>
</svg>
