<?xml version="1.0" encoding="utf-8"?>
<!-- Generator: Adobe Illustrator 26.5.0, SVG Export Plug-In . SVG Version: 6.00 Build 0)  -->
<svg version="1.1" id="Layer_1" xmlns="http://www.w3.org/2000/svg" xmlns:xlink="http://www.w3.org/1999/xlink" x="0px" y="0px"
	 viewBox="0 0 28 28" style="enable-background:new 0 0 28 28;" xml:space="preserve">
<style type="text/css">
	.st0{fill:#FFFFFF;}
</style>
<path class="st0" d="M28,14c0,7.7-6.3,14-14,14C6.3,28,0,21.7,0,14C0,6.3,6.3,0,14,0C21.7,0,28,6.3,28,14z M21.5,14.8
	c0.1-0.1,0.3-0.2,0.3-0.3C22,14.3,22,14.2,22,14c0-0.2,0-0.3-0.1-0.5c-0.1-0.1-0.2-0.2-0.3-0.3L9.8,7.1C9.7,7,9.5,7,9.4,7
	C9.2,7,9.1,7.1,8.9,7.2C8.8,7.3,8.7,7.5,8.7,7.6c0,0.2,0,0.3,0,0.5l1.2,4.4c0,0.2,0.2,0.3,0.3,0.5c0.1,0.1,0.3,0.2,0.5,0.2h3.8
	c0.2,0,0.4,0.1,0.6,0.3c0.2,0.2,0.2,0.4,0.2,0.6c0,0.2-0.1,0.5-0.2,0.6s-0.4,0.3-0.6,0.3h-3.8c-0.2,0-0.4,0.1-0.5,0.2
	c-0.1,0.1-0.3,0.3-0.3,0.5l-1.2,4.4c0,0.2,0,0.3,0,0.5c0,0.2,0.1,0.3,0.3,0.4C9.1,20.9,9.2,21,9.4,21c0.2,0,0.3,0,0.5-0.1L21.5,14.8
	z"/>
</svg>
